<svg xmlns="http://www.w3.org/2000/svg" xmlns:xlink="http://www.w3.org/1999/xlink" width="194.819" height="38.046" viewBox="0 0 194.819 38.046">
  <defs>
    <linearGradient id="linear-gradient" x1="0.5" x2="0.5" y2="1" gradientUnits="objectBoundingBox">
      <stop offset="0" stop-color="#fff" stop-opacity="0"/>
      <stop offset="0.325" stop-color="#fff" stop-opacity="0.502"/>
      <stop offset="0.507" stop-color="#fff"/>
      <stop offset="0.685" stop-color="#fff" stop-opacity="0.502"/>
      <stop offset="1" stop-color="#fff" stop-opacity="0"/>
    </linearGradient>
  </defs>
  <g id="dksh-logo-white" transform="translate(-28.726 -29.304)">
    <path id="Path_3032" data-name="Path 3032" d="M244.98,43.207V53.418L235.8,43.207h-3.763V60.343h4.24V49.58l7.114,7.988,2.472,2.776h3.362V43.207Zm-21.466,0h-4.943L212.3,57.567l-1.211,2.776h4.567l1.148-2.776.232-.562h7.377l.206.562,1.023,2.776h4.542l-1.081-2.776ZM218.27,54.07l2.658-6.523,2.41,6.523ZM202.146,43.207h-4.292V60.343h11.667V57.031h-7.376Zm-14.84,0h-4.291V60.343h11.667V57.031h-7.376Zm-38.294,6.9-5.494-6.9H139.73V60.343h4.24V49.729L149.013,56l5.1-6.272V60.343h4.214V43.207h-3.788ZM134.421,51.26a25.524,25.524,0,0,0-4.267-1.831c-1.555-.577-2.308-1.205-2.308-1.906,0-.88.853-1.381,2.509-1.381a12.942,12.942,0,0,1,5.6,1.707V44.336a13.3,13.3,0,0,0-5.822-1.405c-3.939,0-6.473,2.082-6.473,4.942,0,3.112,2.108,4.543,6.423,6.047,1.506.527,2.283.853,2.283,1.883,0,1-.879,1.53-2.559,1.53-1.932,0-3.688-.829-5.846-2.159v3.815a11.3,11.3,0,0,0,5.947,1.655c3.289,0,5.5-1.151,6.365-3.076a4.883,4.883,0,0,0,.409-2.016A4.715,4.715,0,0,0,134.421,51.26Zm36.24-8.329a9.224,9.224,0,0,0-6.623,2.433,9.031,9.031,0,0,0-.595,12.2l.044.047c.174.2.356.389.551.573a10.188,10.188,0,0,0,13.272,0c.2-.185.378-.376.553-.573l.042-.046a9.031,9.031,0,0,0-.6-12.2A9.281,9.281,0,0,0,170.661,42.931Zm0,14.1c-2.834,0-4.893-2.158-4.893-5.242s2.059-5.271,4.893-5.271,4.893,2.183,4.893,5.271S173.5,57.031,170.661,57.031Z" transform="translate(-25.676 -3.686)" fill="#fff"/>
    <g id="Group_1170" data-name="Group 1170" transform="translate(28.726 39.245)">
      <path id="Path_3035" data-name="Path 3035" d="M28.726,43.331h4.682c5.246,0,9.881,1.768,9.881,8.562s-4.635,8.568-9.881,8.568H28.726Zm3.432,14.436h1.908a5.607,5.607,0,0,0,5.64-5.873,5.6,5.6,0,0,0-5.64-5.862H32.158Z" transform="translate(-28.726 -43.039)" fill="#fff"/>
      <path id="Path_3036" data-name="Path 3036" d="M51.133,43.331h3.434v7.362l6.183-7.362h4.217L57.926,51.41l7.335,9.051H60.774l-6.159-7.952h-.049v7.952H51.133Z" transform="translate(-34.786 -43.039)" fill="#fff"/>
      <path id="Path_3037" data-name="Path 3037" d="M80.869,46.366a8.857,8.857,0,0,0-3.485-.737c-1.176,0-2.7.514-2.7,2.382,0,2.967,7.5,1.715,7.5,7.455,0,3.757-2.968,5.178-6.427,5.178a15.135,15.135,0,0,1-4.388-.659l.317-3.088a8.252,8.252,0,0,0,3.875,1.048c1.3,0,3.043-.667,3.043-2.212,0-3.253-7.507-1.908-7.507-7.577,0-3.827,2.968-5.225,5.986-5.225a12.959,12.959,0,0,1,4.1.614Z" transform="translate(-40.188 -42.931)" fill="#fff"/>
      <path id="Path_3038" data-name="Path 3038" d="M88.8,43.331h3.435v6.922h6.869V43.331h3.432v17.13H99.107V52.954H92.237v7.507H88.8Z" transform="translate(-44.975 -43.039)" fill="#fff"/>
    </g>
    <rect id="Rectangle_1648" data-name="Rectangle 1648" width="0.514" height="38.046" transform="translate(91.965 29.304)" fill="url(#linear-gradient)"/>
  </g>
</svg>
